<svg xmlns="http://www.w3.org/2000/svg" viewBox="0 0 64 64">
  <defs>
    <linearGradient id="bg" x1="10" y1="6" x2="54" y2="58" gradientUnits="userSpaceOnUse">
      <stop stop-color="#0A84FF"/>
      <stop offset="0.52" stop-color="#1C1C1E"/>
      <stop offset="1" stop-color="#30D158"/>
    </linearGradient>
    <radialGradient id="shine" cx="22" cy="16" r="40" gradientUnits="userSpaceOnUse">
      <stop stop-color="#FFFFFF" stop-opacity="0.45"/>
      <stop offset="1" stop-color="#FFFFFF" stop-opacity="0"/>
    </radialGradient>
  </defs>
  <rect width="64" height="64" rx="16" fill="url(#bg)"/>
  <rect width="64" height="64" rx="16" fill="url(#shine)"/>
  <circle cx="32" cy="32" r="18" fill="#F5F5F7"/>
  <path d="M32 16 43.4 24.2 39 37.5H25L20.6 24.2 32 16Z" fill="#111827"/>
  <path d="M20.8 24.3 13.9 29.4 18.2 42.5 25 37.5Z" fill="#111827"/>
  <path d="M43.2 24.3 50.1 29.4 45.8 42.5 39 37.5Z" fill="#111827"/>
  <path d="M25 37.5 22.4 46.1 32 52.8 41.6 46.1 39 37.5Z" fill="#111827"/>
  <path d="M32 16v-6M32 54v-4M16 32H8M56 32h-8" stroke="#F5F5F7" stroke-width="2" stroke-linecap="round" opacity="0.7"/>
</svg>
